<?xml version="1.0" encoding="utf-8"?>
<!-- Generator: Adobe Illustrator 19.2.1, SVG Export Plug-In . SVG Version: 6.00 Build 0)  -->
<svg version="1.1" xmlns="http://www.w3.org/2000/svg" xmlns:xlink="http://www.w3.org/1999/xlink" x="0px" y="0px"
	 viewBox="0 0 851 315" style="enable-background:new 0 0 851 315;" xml:space="preserve">
<style type="text/css">
	.st0{fill:url(#SVGID_1_);}
	.st1{fill:url(#SVGID_2_);}
	.st2{fill:url(#SVGID_3_);}
	.st3{fill:url(#SVGID_4_);}
	.st4{fill:url(#SVGID_5_);}
	.st5{fill:url(#SVGID_6_);}
	.st6{fill:url(#SVGID_7_);}
	.st7{fill:url(#SVGID_8_);}
	.st8{fill:url(#SVGID_9_);}
	.st9{fill:url(#SVGID_10_);}
	.st10{fill:url(#SVGID_11_);}
	.st11{fill:url(#SVGID_12_);}
	.st12{fill:url(#SVGID_13_);}
	.st13{fill:url(#SVGID_14_);}
	.st14{fill:url(#SVGID_15_);}
	.st15{fill:url(#SVGID_16_);}
	.st16{fill:url(#SVGID_17_);}
	.st17{fill:url(#SVGID_18_);}
	.st18{fill:url(#SVGID_19_);}
	.st19{fill:url(#SVGID_20_);}
	.st20{fill:url(#SVGID_21_);}
	.st21{fill:url(#SVGID_22_);}
	.st22{fill:url(#SVGID_23_);}
	.st23{fill:url(#SVGID_24_);}
	.st24{fill:url(#SVGID_25_);}
	.st25{fill:url(#SVGID_26_);}
	.st26{fill:url(#SVGID_27_);}
	.st27{fill:url(#SVGID_28_);}
	.st28{fill:url(#SVGID_29_);}
	.st29{fill:url(#SVGID_30_);}
	.st30{fill:url(#SVGID_31_);}
	.st31{fill:url(#SVGID_32_);}
	.st32{fill:url(#SVGID_33_);}
	.st33{fill:url(#SVGID_34_);}
	.st34{fill:url(#SVGID_35_);}
	.st35{fill:url(#SVGID_36_);}
	.st36{fill:url(#SVGID_37_);}
	.st37{fill:url(#SVGID_38_);}
	.st38{fill:url(#SVGID_39_);}
	.st39{fill:url(#SVGID_40_);}
	.st40{fill:url(#SVGID_41_);}
	.st41{fill:url(#SVGID_42_);}
	.st42{fill:url(#SVGID_43_);}
	.st43{fill:url(#SVGID_44_);}
	.st44{fill:url(#SVGID_45_);}
	.st45{fill:url(#SVGID_46_);}
	.st46{fill:url(#SVGID_47_);}
	.st47{fill:url(#SVGID_48_);}
	.st48{fill:url(#SVGID_49_);}
	.st49{fill:url(#SVGID_50_);}
	.st50{fill:url(#SVGID_51_);}
	.st51{fill:url(#SVGID_52_);}
	.st52{fill:url(#SVGID_53_);}
	.st53{fill:url(#SVGID_54_);}
	.st54{fill:url(#SVGID_55_);}
	.st55{fill:#FFFFFF;}
	.st56{fill:url(#SVGID_56_);}
	.st57{fill:url(#SVGID_57_);}
	.st58{fill:url(#SVGID_58_);}
	.st59{fill:url(#SVGID_59_);}
	.st60{fill:url(#SVGID_60_);}
	.st61{fill:url(#SVGID_61_);}
	.st62{fill:url(#SVGID_62_);}
	.st63{fill:url(#SVGID_63_);}
	.st64{fill:url(#SVGID_64_);}
	.st65{fill:url(#SVGID_65_);}
	.st66{fill:url(#SVGID_66_);}
	.st67{fill:url(#SVGID_67_);}
	.st68{fill:url(#SVGID_68_);}
	.st69{fill:url(#SVGID_69_);}
	.st70{fill:url(#SVGID_70_);}
	.st71{fill:url(#SVGID_71_);}
	.st72{fill:url(#SVGID_72_);}
	.st73{fill:url(#SVGID_73_);}
	.st74{fill:url(#SVGID_74_);}
	.st75{fill:url(#SVGID_75_);}
	.st76{fill:url(#SVGID_76_);}
	.st77{fill:url(#SVGID_77_);}
	.st78{fill:url(#SVGID_78_);}
	.st79{fill:url(#SVGID_79_);}
	.st80{fill:url(#SVGID_80_);}
	.st81{fill:url(#SVGID_81_);}
	.st82{fill:url(#SVGID_82_);}
	.st83{fill:url(#SVGID_83_);}
	.st84{fill:url(#SVGID_84_);}
	.st85{fill:url(#SVGID_85_);}
	.st86{fill:url(#SVGID_86_);}
	.st87{fill:url(#SVGID_87_);}
	.st88{fill:url(#SVGID_88_);}
	.st89{fill:url(#SVGID_89_);}
	.st90{fill:url(#SVGID_90_);}
	.st91{fill:url(#SVGID_91_);}
	.st92{fill:url(#SVGID_92_);}
	.st93{fill:url(#SVGID_93_);}
	.st94{fill:url(#SVGID_94_);}
	.st95{fill:url(#SVGID_95_);}
	.st96{fill:url(#SVGID_96_);}
	.st97{fill:url(#SVGID_97_);}
	.st98{fill:url(#SVGID_98_);}
	.st99{fill:url(#SVGID_99_);}
	.st100{fill:url(#SVGID_100_);}
	.st101{fill:url(#SVGID_101_);}
	.st102{fill:url(#SVGID_102_);}
	.st103{fill:url(#SVGID_103_);}
	.st104{fill:url(#SVGID_104_);}
	.st105{fill:url(#SVGID_105_);}
	.st106{fill:url(#SVGID_106_);}
	.st107{fill:url(#SVGID_107_);}
	.st108{fill:url(#SVGID_108_);}
	.st109{fill:url(#SVGID_109_);}
	.st110{fill:url(#SVGID_110_);}
	.st111{fill:url(#SVGID_111_);}
	.st112{fill:url(#SVGID_112_);}
	.st113{fill:url(#SVGID_113_);}
	.st114{fill:url(#SVGID_114_);}
	.st115{fill:url(#SVGID_115_);}
	.st116{fill:url(#SVGID_116_);}
	.st117{fill:url(#SVGID_117_);}
	.st118{fill:url(#SVGID_118_);}
	.st119{fill:url(#SVGID_119_);}
	.st120{fill:url(#SVGID_120_);}
	.st121{fill:url(#SVGID_121_);}
	.st122{fill:url(#SVGID_122_);}
	.st123{fill:url(#SVGID_123_);}
	.st124{fill:url(#SVGID_124_);}
	.st125{fill:url(#SVGID_125_);}
	.st126{fill:url(#SVGID_126_);}
	.st127{fill:url(#SVGID_127_);}
	.st128{fill:url(#SVGID_128_);}
	.st129{fill:url(#SVGID_129_);}
	.st130{fill:url(#SVGID_130_);}
	.st131{fill:url(#SVGID_131_);}
	.st132{fill:url(#SVGID_132_);}
	.st133{fill:url(#SVGID_133_);}
	.st134{fill:url(#SVGID_134_);}
	.st135{fill:url(#SVGID_135_);}
	.st136{fill:url(#SVGID_136_);}
	.st137{fill:url(#SVGID_137_);}
	.st138{fill:url(#SVGID_138_);}
	.st139{fill:url(#SVGID_139_);}
	.st140{fill:url(#SVGID_140_);}
	.st141{fill:url(#SVGID_141_);}
	.st142{fill:url(#SVGID_142_);}
	.st143{fill:url(#SVGID_143_);}
</style>
<g id="Logo_Transparent">
</g>
<g id="Logo_White">
</g>
<g id="Full_Name__x2B__Logo">
</g>
<g id="Full_Name__x2B__Logo_White">
</g>
<g id="Logo_White_2_">
</g>
<g id="Logo_Black_1_">
</g>
<g id="Logo_Black_Full">
</g>
<g id="Logo_Small">
</g>
<g id="Logo_Small_White_Back">
</g>
<g id="Logo_Small_White">
</g>
<g id="Logo_Small_Black">
</g>
<g id="Poster">
</g>
<g id="Facebook_Group_Template">
	<g>
		<polygon class="st55" points="450.9,-1.4 448.9,-4.9 403.7,21.5 1,21.5 1,25.5 404.8,25.5 		"/>
		<path class="st55" d="M806.6,103.9c-4.3,0.9-7.5,4.7-7.5,9.3c0,5.3,4.3,9.5,9.5,9.5c5.3,0,9.5-4.3,9.5-9.5c0-4.6-3.2-8.4-7.5-9.3
			V34.4L774.9-1.4L772,1.5l34.6,34.6V103.9z"/>
		<path class="st55" d="M245.7,275.1c-4.6,0-8.4,3.2-9.3,7.5H70.6c-0.9-4.3-4.7-7.5-9.3-7.5c-5.3,0-9.5,4.3-9.5,9.5
			c0,5.3,4.3,9.5,9.5,9.5c4.6,0,8.4-3.2,9.3-7.5h165.8c0.9,4.3,4.7,7.5,9.3,7.5c5.3,0,9.5-4.3,9.5-9.5
			C255.3,279.3,251,275.1,245.7,275.1z"/>
		<path class="st55" d="M119.4,142c0-5.3-4.3-9.5-9.5-9.5c-5.3,0-9.5,4.3-9.5,9.5c0,4.9,3.8,9,8.6,9.5v86.8
			c-4.8,0.5-8.6,4.6-8.6,9.5c0,5.3,4.3,9.5,9.5,9.5c5.3,0,9.5-4.3,9.5-9.5c0-4.2-2.7-7.8-6.5-9v-87.7
			C116.6,149.8,119.4,146.3,119.4,142z"/>
		<path class="st55" d="M58,229.3c0-5.3-4.3-9.5-9.5-9.5c-5.3,0-9.5,4.3-9.5,9.5c0,1.2,0.2,2.4,0.7,3.5L0,256.2l2,3.4l39.8-23.5
			c1.7,1.7,4.1,2.7,6.6,2.7C53.7,238.9,58,234.6,58,229.3z"/>
		<path class="st55" d="M442.5,250h173.3c0.9,4.3,4.7,7.5,9.3,7.5c5.3,0,9.5-4.3,9.5-9.5s-4.3-9.5-9.5-9.5c-4.6,0-8.4,3.2-9.3,7.5
			H442.5c-0.9-4.3-4.7-7.5-9.3-7.5c-5.3,0-9.5,4.3-9.5,9.5s4.3,9.5,9.5,9.5C437.7,257.6,441.6,254.3,442.5,250z"/>
		<path class="st55" d="M714.1,257.6c4.6,0,8.4-3.2,9.3-7.5h26.3c0.9,4.3,4.7,7.5,9.3,7.5c5.3,0,9.5-4.3,9.5-9.5s-4.3-9.5-9.5-9.5
			c-4.6,0-8.4,3.2-9.3,7.5h-26.3c-0.9-4.3-4.7-7.5-9.3-7.5c-5.3,0-9.5,4.3-9.5,9.5S708.9,257.6,714.1,257.6z"/>
		<path class="st55" d="M238.7,101.2c5.3,0,9.5-4.3,9.5-9.5c0-5.3-4.3-9.5-9.5-9.5c-4.6,0-8.4,3.2-9.3,7.5H66.6l-25.4,25.4v48.3
			c-4.8,0.5-8.6,4.6-8.6,9.5c0,5.3,4.3,9.5,9.5,9.5c5.3,0,9.5-4.3,9.5-9.5c0-4.2-2.7-7.8-6.5-9v-47.1l23.1-23.1h161.1
			C230.3,97.9,234.1,101.2,238.7,101.2z"/>
		<path class="st55" d="M463.3,55.9c5.3,0,9.5-4.3,9.5-9.5c0-5.3-4.3-9.5-9.5-9.5c-4.9,0-8.9,3.7-9.5,8.4H0.5v4h453.7
			C455.4,53.1,459,55.9,463.3,55.9z"/>
		<path class="st55" d="M808.6,238.9c-5.3,0-9.5,4.3-9.5,9.5c0,4.9,3.8,9,8.6,9.5v24.6H687.5c-0.9-4.3-4.7-7.5-9.3-7.5
			c-5.3,0-9.5,4.3-9.5,9.5s4.3,9.5,9.5,9.5c4.6,0,8.4-3.2,9.3-7.5h124.2v-29c3.8-1.3,6.5-4.8,6.5-9
			C818.2,243.2,813.9,238.9,808.6,238.9z"/>
		<path class="st55" d="M555.2,78.2c5.3,0,9.5-4.3,9.5-9.5c0-4.6-3.2-8.4-7.5-9.3v-7.9l26-26h158.7l26.8,26.8V162
			c-4.3,0.9-7.5,4.7-7.5,9.3c0,5.3,4.3,9.5,9.5,9.5c5.3,0,9.5-4.3,9.5-9.5c0-4.6-3.2-8.4-7.5-9.3V50.7l-29.2-29.2h-162l-28.3,28.3
			v9.6c-4.3,0.9-7.5,4.7-7.5,9.3C545.6,73.9,549.9,78.2,555.2,78.2z"/>
		<path class="st55" d="M179.5,249.1c-0.9-4.3-4.7-7.5-9.3-7.5c-5.3,0-9.5,4.3-9.5,9.5c0,5.3,4.3,9.5,9.5,9.5c4.6,0,8.4-3.2,9.3-7.5
			h185.9l29.6,29.6v32.7h4V281L367,249.1H179.5z"/>
		<path class="st55" d="M723.7,82.4c5.3,0,9.5-4.3,9.5-9.5c0-5.3-4.3-9.5-9.5-9.5c-4.5,0-8.3,3.1-9.3,7.4h-96.5
			c-0.9-4.3-4.7-7.5-9.3-7.5c-5.3,0-9.5,4.3-9.5,9.5c0,5.3,4.3,9.5,9.5,9.5c4.6,0,8.4-3.2,9.3-7.5h96.4
			C715.2,79.1,719,82.4,723.7,82.4z"/>
		<polygon class="st55" points="449.7,297.9 432.8,314.9 435.6,317.7 451.4,301.9 620.3,301.9 639.3,320.9 642.2,318.1 622,297.9 		
			"/>
		<path class="st55" d="M827.2,205.7v-38.8c4.3-0.9,7.5-4.7,7.5-9.3c0-5.3-4.3-9.5-9.5-9.5c-5.3,0-9.5,4.3-9.5,9.5
			c0,4.6,3.2,8.4,7.5,9.3v40.5l32.6,32.6l2.8-2.8L827.2,205.7z"/>
	</g>
</g>
</svg>
